<?xml version="1.0" standalone="no"?>
<!DOCTYPE svg PUBLIC "-//W3C//DTD SVG 20010904//EN"
 "http://www.w3.org/TR/2001/REC-SVG-20010904/DTD/svg10.dtd">
<svg version="1.0" xmlns="http://www.w3.org/2000/svg"
 width="1024.000000pt" height="1024.000000pt" viewBox="0 0 1024.000000 1024.000000"
 preserveAspectRatio="xMidYMid meet">

<g transform="translate(0.000000,1024.000000) scale(0.100000,-0.100000)"
fill="#000000" stroke="none">
<path d="M4900 8100 c-135 -16 -440 -83 -575 -127 -214 -69 -453 -173 -574
-250 -363 -231 -616 -452 -840 -734 -219 -277 -322 -444 -459 -749 -115 -255
-202 -552 -249 -851 -17 -105 -18 -195 -18 -1099 l1 -985 27 -98 c14 -55 42
-127 61 -160 92 -164 267 -312 436 -370 53 -18 133 -19 2495 -22 1702 -3 2459
0 2504 7 75 12 185 55 252 98 53 35 151 135 196 200 51 75 102 186 119 258 23
98 22 2013 -1 2197 -18 142 -91 442 -146 600 -86 252 -307 666 -450 845 -15
19 -67 85 -115 145 -133 166 -187 224 -335 359 -145 133 -397 311 -569 403
-309 166 -733 294 -1089 328 -162 16 -555 18 -671 5z m196 -1899 c122 -90 331
-333 419 -487 78 -139 88 -175 93 -354 l4 -155 43 3 c36 3 48 -1 79 -28 40
-36 142 -184 186 -270 54 -108 65 -161 65 -330 -1 -145 -2 -159 -28 -225 -66
-167 -183 -303 -292 -340 -70 -23 -161 -86 -230 -159 l-50 -53 -89 10 c-84 10
-208 1 -258 -18 -11 -5 -18 0 -23 16 -11 32 -89 113 -143 148 -26 16 -78 42
-117 57 -98 39 -193 135 -257 259 -57 112 -71 173 -71 300 1 207 61 337 293
639 167 216 221 299 261 401 22 55 24 73 23 225 -1 142 -4 174 -22 227 -12 34
-22 77 -22 94 0 71 67 91 136 40z m820 -235 c32 -32 34 -38 34 -103 0 -82 -14
-108 -69 -124 -87 -26 -125 13 -125 128 -1 72 0 76 32 104 45 40 84 39 128 -5z
m-1785 -393 c39 -23 47 -54 55 -208 8 -149 5 -156 -69 -176 -86 -23 -112 19
-123 204 -8 135 -3 161 34 181 36 20 68 20 103 -1z m2184 -47 c13 -13 29 -43
35 -66 23 -86 -16 -149 -94 -152 -50 -2 -81 31 -90 95 -17 110 81 191 149 123z
m-1610 -1703 c41 -21 125 -103 125 -123 0 -9 -12 -27 -26 -41 -24 -22 -26 -22
-22 -4 2 15 -6 22 -36 33 -49 16 -149 17 -203 3 -64 -17 -175 -128 -165 -165
2 -4 0 -16 -3 -26 -6 -18 -7 -18 -38 0 -18 10 -49 23 -69 30 -32 10 -38 16
-38 38 0 41 44 126 88 170 95 95 283 136 387 85z m1243 -2 c20 -10 47 -30 58
-43 12 -12 38 -38 58 -57 55 -50 112 -171 81 -171 -9 0 -12 6 -9 15 4 8 1 15
-6 15 -7 0 -9 8 -5 21 4 13 3 19 -3 15 -5 -3 -17 3 -27 14 -10 11 -24 20 -32
20 -8 0 -30 12 -50 27 -30 23 -45 27 -103 27 -58 0 -79 -5 -141 -36 -41 -20
-84 -46 -96 -57 -12 -12 -24 -21 -27 -21 -2 0 -25 25 -49 57 l-45 56 21 29
c48 65 148 106 260 107 58 1 87 -4 115 -18z m1525 12 c-7 -2 -19 -2 -25 0 -7
3 -2 5 12 5 14 0 19 -2 13 -5z m44 -9 c-3 -3 -12 -4 -19 -1 -8 3 -5 6 6 6 11
1 17 -2 13 -5z m-4175 -178 c43 -18 54 -31 63 -76 4 -19 20 -61 36 -92 84
-167 78 -312 -18 -418 -64 -72 -89 -82 -194 -82 -104 0 -168 24 -239 88 -54
49 -69 85 -77 185 -8 99 14 184 65 262 60 90 97 125 139 132 21 4 43 8 48 10
28 10 147 3 177 -9z m2000 -44 c24 -10 60 -37 80 -60 39 -43 68 -89 49 -78
-26 16 -213 33 -254 23 -32 -9 -120 -88 -156 -141 -65 -95 -111 -256 -83 -292
4 -5 -12 11 -35 36 -68 71 -86 119 -81 200 6 75 44 171 92 228 34 40 104 82
165 99 60 17 168 10 223 -15z m2106 -14 c28 -28 4 -126 -37 -148 -11 -5 -43
-15 -73 -21 -163 -35 -239 -147 -263 -389 -3 -36 -9 -71 -14 -78 -8 -13 -108
-35 -122 -26 -15 9 -10 233 6 303 51 215 231 365 446 370 25 1 50 -4 57 -11z
m-601 -90 c-3 -7 -5 -2 -5 12 0 14 2 19 5 13 2 -7 2 -19 0 -25z m-2630 -146
c29 -15 50 -37 72 -75 17 -30 31 -57 31 -61 0 -11 -64 5 -99 25 -45 26 -76 19
-151 -37 -91 -69 -146 -135 -153 -184 -7 -55 -12 -58 -43 -29 -51 48 -71 115
-54 180 19 69 111 158 205 196 43 18 142 10 192 -15z m2211 -8 c49 -24 84 -62
122 -133 11 -22 11 -23 -6 -17 -11 4 -29 10 -41 12 -12 2 -34 9 -48 14 -33 13
-106 13 -138 1 -38 -15 -93 -67 -123 -118 -25 -44 -26 -48 -14 -100 6 -30 10
-57 7 -59 -7 -7 -99 74 -119 105 -43 63 -6 186 77 259 85 74 177 86 283 36z
m-647 -42 c-13 -2 -27 0 -32 5 -6 6 3 7 23 4 28 -4 29 -6 9 -9z m-1521 -327
c-7 -8 -17 -15 -23 -15 -6 0 -2 7 9 15 25 19 30 19 14 0z"/>
<path d="M5200 5781 c0 -90 -17 -181 -54 -289 -44 -129 -104 -218 -296 -442
-164 -191 -212 -278 -232 -420 -10 -66 -9 -90 5 -154 31 -146 118 -279 218
-335 l42 -23 -7 43 c-28 167 -24 255 18 338 14 27 57 88 95 135 83 103 110
155 121 235 9 65 42 121 72 121 31 0 91 -65 192 -205 117 -164 157 -236 187
-334 19 -64 21 -88 16 -177 -3 -57 -2 -106 2 -109 14 -8 89 57 125 108 73 103
112 243 101 366 -8 92 -39 175 -116 310 -69 121 -100 163 -106 143 -19 -52
-90 -92 -165 -92 -33 0 -36 3 -41 36 -7 40 -2 72 21 154 9 34 15 97 15 165 0
124 -15 191 -68 296 -33 66 -118 194 -136 204 -5 4 -9 -27 -9 -74z"/>
<path d="M5207 4583 c-14 -32 -49 -84 -77 -117 -74 -86 -83 -108 -78 -186 6
-81 56 -192 119 -264 l42 -47 49 48 c117 114 155 300 92 451 -16 40 -103 172
-114 172 -3 0 -18 -26 -33 -57z"/>
<path d="M6096 3651 c-3 -5 2 -15 12 -22 15 -12 16 -12 5 2 -7 9 -10 19 -6 22
3 4 4 7 0 7 -3 0 -8 -4 -11 -9z"/>
</g>
</svg>
